<svg width="24" height="26" viewBox="0 0 24 26" fill="none" xmlns="http://www.w3.org/2000/svg">
<path d="M12 0.521484C5.4 0.521484 0 6.1675 0 13.0682C0 19.9689 5.4 25.6149 12 25.6149C18.6 25.6149 24 19.9689 24 13.0682C24 6.1675 18.6 0.521484 12 0.521484ZM12 3.65816C16.98 3.65816 21 7.8613 21 13.0682C21 18.2751 16.98 22.4782 12 22.4782C7.02 22.4782 3 18.2751 3 13.0682C3 7.8613 7.02 3.65816 12 3.65816ZM12 6.79483C8.7 6.79483 6 9.61784 6 13.0682C6 16.5185 8.7 19.3415 12 19.3415C15.3 19.3415 18 16.5185 18 13.0682C18 9.61784 15.3 6.79483 12 6.79483ZM12 9.93151C13.68 9.93151 15 11.3116 15 13.0682C15 14.8247 13.68 16.2049 12 16.2049C10.32 16.2049 9 14.8247 9 13.0682C9 11.3116 10.32 9.93151 12 9.93151Z" fill="#FFB800"/>
</svg>
